<?xml version="1.0" encoding="utf-8"?>
<svg id="master-artboard" viewBox="0 0 900 900" data-name="cute critters" xmlns="http://www.w3.org/2000/svg" width="900px" height="900px"><rect id="ee-background" x="0" y="0" width="900" height="900" style="fill: white; fill-opacity: 0; pointer-events: none;"/><title>cute-critters-vector-set</title><g id="cat" transform="matrix(4.073094772441433, 0, 0, 4.073094772441433, -239.42075309578826, -238.6254828700421)"><path d="M 279 169 A 110 110 0 0 1 169 279 A 110 110 0 0 1 59 169 A 110 110 0 0 1 169 59 A 110 110 0 0 1 279 169 Z" fill="#f072ab"/><path d="M169,279.5A110.5,110.5,0,1,1,279.5,169,110.63,110.63,0,0,1,169,279.5Zm0-220A109.5,109.5,0,1,0,278.5,169,109.62,109.62,0,0,0,169,59.5Z" fill="#fff"/><path d="M169.48,233.44c0-12.29,5.1-23.22,13-30.27-16.79-1.73-37.1,1-45.2,7.54-4.14,3.33-7.83,10.08-11.07,18.31a31.54,31.54,0,0,1,4.15-.31c18.79,0,34,17.25,34,38.54a43,43,0,0,1-1.58,11.57c2,.11,4.1.18,6.17.18a109.51,109.51,0,0,0,40-7.55,29.68,29.68,0,0,1-5.52.53C184.72,272,169.48,254.72,169.48,233.44Z" fill="#fdffe9"/><path d="M221,247.77c0-.22-.11-.43-.17-.64-.28-1.06-.56-2.12-.86-3.17l-.3-1.08c-.26-.89-.51-1.78-.77-2.67l-.39-1.28c-.25-.8-.49-1.6-.74-2.38l-.45-1.4c-.24-.73-.47-1.45-.72-2.16-.16-.48-.33-1-.49-1.43-.24-.68-.48-1.35-.72-2-.18-.48-.35-1-.53-1.42-.24-.64-.49-1.26-.73-1.87s-.37-.91-.56-1.36l-.75-1.74c-.19-.43-.38-.87-.58-1.29s-.51-1.07-.77-1.6-.39-.8-.6-1.19-.53-1-.8-1.48-.4-.72-.6-1.06-.58-.92-.87-1.37c-.19-.29-.38-.61-.58-.89-.32-.46-.65-.88-1-1.3-.17-.22-.33-.45-.5-.65a18.58,18.58,0,0,0-1.52-1.63,15.1,15.1,0,0,0-1.62-1.3l-.46-.32c-.56-.37-1.15-.73-1.79-1.07l-.16-.09c-.71-.37-1.47-.72-2.26-1.05l-.49-.2c-.76-.3-1.54-.59-2.37-.86l-.16-.06c-.92-.29-1.89-.57-2.88-.82l-.29-.07c-1-.24-2-.47-3-.67h-.05c-2.22-.44-4.56-.78-7-1h0c-7.92,7.05-13,18-13,30.27,0,21.28,15.24,38.54,34,38.54a29.68,29.68,0,0,0,5.52-.53,108.59,108.59,0,0,0,14.59-7c.38-.32.77-.62,1.14-1C223.65,258.38,222.4,253,221,247.77Z" fill="#019678"/><path d="M130.38,228.71a30.2,30.2,0,0,0-4.17.32c-.23.59-.46,1.21-.7,1.82-.11.32-.23.63-.34.94-.23.62-.46,1.25-.68,1.88l-.3.87c-.75,2.19-1.48,4.45-2.18,6.76l-.21.7c-.22.75-.44,1.49-.65,2.24-.06.21-.12.43-.19.65-.69,2.46-1.36,4.94-2,7.43l-.12.46-.6,2.42c0,.15-.07.31-.11.47-.62,2.54-1.2,5.07-1.74,7.54,0,.1-.05.2-.07.3-.14.62-.27,1.24-.4,1.85a109.43,109.43,0,0,0,46.9,13.46,43,43,0,0,0,1.58-11.57C164.41,246,149.17,228.71,130.38,228.71Z" fill="#ec1b34"/><path d="M202.22,85.86C207.77,88,206,126.22,206,126.22L176.31,115.3S197.4,84,202.22,85.86Z" fill="#fdffe9"/><path d="M185.66,112.35a200,200,0,0,1,13.73-17.43,178.85,178.85,0,0,1,.83,22.8Z" fill="#ec1b34"/><path d="M 235.320007 164.880005 A 65 52.119999 0 0 1 170.320007 217.000004 A 65 52.119999 0 0 1 105.320007 164.880005 A 65 52.119999 0 0 1 170.320007 112.760006 A 65 52.119999 0 0 1 235.320007 164.880005 Z" transform="translate(-17.09 19.72) rotate(-6.31)" fill="#fdffe9"/><path d="M114.26,98.17c-4.75,3.57,7.62,39.81,7.62,39.81l25.45-18.72S118.38,95.08,114.26,98.17Z" fill="#fdffe9"/><path d="M125.25,130.37a208.48,208.48,0,0,1-5.76-24.29c4.59,2.77,15.15,8.93,21.75,14.14Z" fill="#ec1b34"/><path d="M138.41,182.58a38,38,0,0,0,18.44-68.26c-30.74,6.43-52.73,29.78-51.32,55.37A38,38,0,0,0,138.41,182.58Z" fill="#fbae17"/><path d="M184.83,188.14c-.35,0-.7,0-1.06,0-6-.45-12.81-5.16-13.58-14.42a1,1,0,1,1,2-.16c.66,8.09,6.55,12.2,11.73,12.59a9.51,9.51,0,0,0,10.33-7.55,1,1,0,1,1,1.95.46A11.33,11.33,0,0,1,184.83,188.14Z" fill="#171717"/><path d="M158.47,191.06a11.3,11.3,0,0,1-10.31-6.73,1,1,0,1,1,1.79-.88,9.49,9.49,0,0,0,11.73,5.11c5-1.51,9.82-6.8,8.7-14.84a1,1,0,0,1,.86-1.13,1,1,0,0,1,1.12.85c1.29,9.21-4.33,15.29-10.09,17A13.15,13.15,0,0,1,158.47,191.06Z" fill="#171717"/><path d="M 209.699994 164.940002 A 9.19 8.81 0 0 1 200.509995 173.750003 A 9.19 8.81 0 0 1 191.319995 164.940002 A 9.19 8.81 0 0 1 200.509995 156.130002 A 9.19 8.81 0 0 1 209.699994 164.940002 Z" transform="translate(-16.91 23.04) rotate(-6.31)" fill="#ffb0d2"/><path d="M 150.059995 171.539993 A 9.19 8.81 0 0 1 140.869995 180.349994 A 9.19 8.81 0 0 1 131.679996 171.539993 A 9.19 8.81 0 0 1 140.869995 162.729993 A 9.19 8.81 0 0 1 150.059995 171.539993 Z" transform="translate(-18 16.52) rotate(-6.31)" fill="#ffb0d2"/><path d="M187.17,154.71a1.27,1.27,0,0,1-1.25-1.11,10.25,10.25,0,0,1,20.38-2.26,1.24,1.24,0,0,1-1.1,1.38,1.23,1.23,0,0,1-1.38-1.1,7.75,7.75,0,0,0-15.41,1.7,1.25,1.25,0,0,1-1.11,1.38Z" fill="#171717"/><path d="M133.49,160.64a1.25,1.25,0,0,1-1.24-1.11,10.25,10.25,0,0,1,20.38-2.25,1.26,1.26,0,0,1-1.11,1.38,1.25,1.25,0,0,1-1.38-1.11,7.77,7.77,0,0,0-8.55-6.85,7.75,7.75,0,0,0-6.85,8.56,1.26,1.26,0,0,1-1.11,1.38Z" fill="#171717"/><path d="M185.3,175.72a1.11,1.11,0,0,0-.25-2.2,1.11,1.11,0,0,0,.25,2.2Z" fill="#f399c0"/><path d="M189.79,177.82a1.11,1.11,0,0,0-.24-2.2,1.11,1.11,0,0,0,.24,2.2Z" fill="#f399c0"/><path d="M182,178.68a1.1,1.1,0,0,0-.25-2.19,1.1,1.1,0,0,0,.25,2.19Z" fill="#f399c0"/><path d="M185.88,181a1.11,1.11,0,0,0-.25-2.2,1.11,1.11,0,0,0,.25,2.2Z" fill="#f399c0"/><path d="M157.46,178.8a1.11,1.11,0,0,0-.24-2.2,1.11,1.11,0,0,0,.24,2.2Z" fill="#f399c0"/><path d="M162,180.9a1.11,1.11,0,0,0-.24-2.2,1.11,1.11,0,0,0,.24,2.2Z" fill="#f399c0"/><path d="M154.15,181.76a1.11,1.11,0,0,0-.25-2.2,1.11,1.11,0,0,0,.25,2.2Z" fill="#f399c0"/><path d="M158.05,184.05a1.11,1.11,0,0,0-.25-2.2,1.11,1.11,0,0,0,.25,2.2Z" fill="#f399c0"/><path d="M190.23,171.76l25.2-7.55-24.7,9a.78.78,0,1,1-.54-1.46Z" fill="#f072ab"/><path d="M191.72,179.49l22.77,4.27-23-2.73a.78.78,0,0,1,.18-1.55Z" fill="#f072ab"/><path d="M190.83,175.7,230.26,172,191,177.25a.78.78,0,0,1-.88-.67.77.77,0,0,1,.67-.87Z" fill="#f072ab"/><path d="M152.23,177.5l-26.08-3.42L152.39,176a.78.78,0,1,1-.11,1.55Z" fill="#f072ab"/><path d="M153.2,185.26,131.34,193l21.29-9.15a.78.78,0,1,1,.62,1.43Z" fill="#f072ab"/><path d="M152.83,181.47l-39.46,3.41,39.3-5a.78.78,0,1,1,.19,1.55Z" fill="#f072ab"/><path d="M180,170.1c.41,3.71-3.26,7.15-8.2,7.7s-9.28-2-9.69-5.72S179.54,166.4,180,170.1Z" fill="#171717"/></g></svg>