<?xml version="1.0" encoding="utf-8"?>
<svg id="master-artboard" viewBox="0 0 900 900" data-name="cute critters" xmlns="http://www.w3.org/2000/svg" width="900px" height="900px"><title>cute-critters-vector-collection</title><g id="koala" transform="matrix(4.086256980895996, 0, 0, 4.086256980895996, -2536.397932769119, -244.31979608285548)"><path d="M 841 170 A 110 110 0 0 1 731 280 A 110 110 0 0 1 621 170 A 110 110 0 0 1 731 60 A 110 110 0 0 1 841 170 Z" fill="#019678"/><path d="M785.48,238.41a6.81,6.81,0,0,1-.14-13.61c-3.3-11-7.12-21-11.41-27.55a6.71,6.71,0,0,1-2.07.35,6.8,6.8,0,0,1-6.81-6.81,6.55,6.55,0,0,1,.27-1.78c-7.37-3.88-18.93-5.82-30.85-6a6.83,6.83,0,0,1-3.47,1,6.72,6.72,0,0,1-3.3-.88c-3.46.15-6.9.43-10.21.87a6.88,6.88,0,1,1-2,.29c-7.3,1.11-13.86,3-18.62,5.45a7.32,7.32,0,0,1,.1,1,6.8,6.8,0,0,1-6.81,6.81,6.93,6.93,0,0,1-1.72-.24c-4.6,6.52-8.63,16.47-12,27.44h.15a6.81,6.81,0,1,1-3.7,12.51c-2,7.78-3.75,15.58-5.16,22.61.91.64,1.83,1.28,2.76,1.9a6.69,6.69,0,0,1-.67-2.32c0-.23,0-.46,0-.69s0-.47,0-.7a6.81,6.81,0,1,1,6.86,7.5c2.42,1.38,4.88,2.68,7.41,3.87A6.79,6.79,0,0,1,697,272.4a6.54,6.54,0,0,1-.36,2.08,109.78,109.78,0,0,0,18.81,4.4,6.8,6.8,0,1,1,2.31.29q5.07.61,10.27.75a6.61,6.61,0,0,1,6,0q5.21-.14,10.27-.75a6.82,6.82,0,1,1,2.31-.29,109.78,109.78,0,0,0,18.81-4.4,6.54,6.54,0,0,1-.36-2.08A6.79,6.79,0,0,1,778,269.47c2.53-1.19,5-2.49,7.41-3.87a6.87,6.87,0,1,1,6.16-3.77c.8-.53,1.58-1.08,2.37-1.62-1.43-7.14-3.13-15-5.09-22.72A6.73,6.73,0,0,1,785.48,238.41Zm-13.62-27.22a6.81,6.81,0,0,1,.7,13.58c-.23,0-.46,0-.7,0s-.47,0-.7,0a6.81,6.81,0,0,1,.7-13.58Zm-13.62-13.6a6.81,6.81,0,1,1-6.81,6.81A6.8,6.8,0,0,1,758.24,197.59Zm0,27.2a6.81,6.81,0,1,1-6.81,6.81A6.81,6.81,0,0,1,758.24,224.79Zm-12.92,0c-.23,0-.47,0-.7,0s-.47,0-.7,0a6.81,6.81,0,1,1,1.4,0Zm-.7-40.78a6.81,6.81,0,1,1-6.81,6.8A6.81,6.81,0,0,1,744.62,184ZM724.23,203.7a6.82,6.82,0,1,1,0,1.39,6.06,6.06,0,0,1,0-1.39Zm13.58,27.9a6.81,6.81,0,0,1-13.58.69,6.06,6.06,0,0,1,0-1.39,6.81,6.81,0,0,1,13.58.7Zm-20.43-20.41a6.81,6.81,0,0,1,.7,13.58c-.23,0-.46,0-.7,0s-.47,0-.69,0a6.81,6.81,0,0,1,.69-13.58Zm-13.62-13.6A6.81,6.81,0,1,1,697,204.4,6.8,6.8,0,0,1,703.76,197.59Zm6.81,34a6.81,6.81,0,1,1-6.81-6.81A6.81,6.81,0,0,1,710.57,231.6Zm-20.43-20.41a6.81,6.81,0,0,1,.7,13.58c-.23,0-.46,0-.7,0s-.47,0-.69,0a6.81,6.81,0,0,1,.69-13.58Zm0,40.82A6.81,6.81,0,1,1,697,245.2,6.81,6.81,0,0,1,690.14,252Zm13.62,13.6a6.81,6.81,0,1,1,6.81-6.81A6.81,6.81,0,0,1,703.76,265.61ZM717.38,252a6.81,6.81,0,1,1,6.81-6.81A6.81,6.81,0,0,1,717.38,252ZM731,265.61a6.8,6.8,0,0,1-6.77-6.12,6.06,6.06,0,0,1,0-1.39,6.81,6.81,0,1,1,6.77,7.51ZM744.62,252a6.81,6.81,0,1,1,6.81-6.81A6.81,6.81,0,0,1,744.62,252Zm13.62,13.6a6.81,6.81,0,1,1,6.81-6.81A6.81,6.81,0,0,1,758.24,265.61ZM771.86,252a6.81,6.81,0,1,1,6.81-6.81A6.81,6.81,0,0,1,771.86,252Z" fill="#fbae17"/><path d="M771.86,197.6a6.71,6.71,0,0,0,2.07-.35,27.44,27.44,0,0,0-4.08-5.11,20.42,20.42,0,0,0-4.53-3.13,6.55,6.55,0,0,0-.27,1.78A6.8,6.8,0,0,0,771.86,197.6Z" fill="#fdffe9"/><path d="M744.62,211.19a6.81,6.81,0,0,0-.7,13.58c.23,0,.46,0,.7,0s.47,0,.7,0a6.81,6.81,0,0,0-.7-13.58Z" fill="#fdffe9"/><path d="M771.86,238.39a6.81,6.81,0,1,0,6.81,6.81A6.81,6.81,0,0,0,771.86,238.39Z" fill="#fdffe9"/><path d="M751.43,272.4a6.81,6.81,0,1,0-7.14,6.77c.77-.09,1.54-.18,2.31-.29A6.79,6.79,0,0,0,751.43,272.4Z" fill="#fdffe9"/><path d="M710.57,190.79a6.81,6.81,0,1,0,6.92-6.79l-2,.29A6.79,6.79,0,0,0,710.57,190.79Z" fill="#fdffe9"/><path d="M689.45,224.77c.22,0,.46,0,.69,0s.47,0,.7,0a6.82,6.82,0,1,0-1.39,0Z" fill="#fdffe9"/><path d="M717.38,238.39a6.81,6.81,0,1,0,6.81,6.81A6.81,6.81,0,0,0,717.38,238.39Z" fill="#fdffe9"/><path d="M690.14,265.59a6.77,6.77,0,0,0-6.12,3.88,109.68,109.68,0,0,0,12.57,5,6.54,6.54,0,0,0,.36-2.08A6.81,6.81,0,0,0,690.14,265.59Z" fill="#fdffe9"/><path d="M744.62,197.6a6.81,6.81,0,1,0-6.81-6.81A6.8,6.8,0,0,0,744.62,197.6Z" fill="#fdffe9"/><path d="M771.16,224.77c.23,0,.46,0,.7,0s.47,0,.7,0a6.81,6.81,0,1,0-1.4,0Z" fill="#fdffe9"/><path d="M744.62,238.39a6.81,6.81,0,1,0,6.81,6.81A6.81,6.81,0,0,0,744.62,238.39Z" fill="#fdffe9"/><path d="M771.86,265.59a6.81,6.81,0,0,0-6.81,6.81,6.54,6.54,0,0,0,.36,2.08,109.68,109.68,0,0,0,12.57-5A6.77,6.77,0,0,0,771.86,265.59Z" fill="#fdffe9"/><path d="M697,190.79a7.32,7.32,0,0,0-.1-1,22.93,22.93,0,0,0-3.76,2.4,25.47,25.47,0,0,0-4.67,5.22,6.93,6.93,0,0,0,1.72.24A6.8,6.8,0,0,0,697,190.79Z" fill="#fdffe9"/><path d="M716.69,224.77c.22,0,.46,0,.69,0s.47,0,.7,0a6.82,6.82,0,1,0-1.39,0Z" fill="#fdffe9"/><path d="M690.14,238.39A6.81,6.81,0,1,0,697,245.2,6.81,6.81,0,0,0,690.14,238.39Z" fill="#fdffe9"/><path d="M724.19,272.4a6.81,6.81,0,1,0-8.79,6.48c.77.11,1.54.2,2.31.29A6.79,6.79,0,0,0,724.19,272.4Z" fill="#fdffe9"/><path d="M778.67,231.6a6.81,6.81,0,0,0,6.81,6.81,6.73,6.73,0,0,0,3.35-.92c-1.09-4.29-2.25-8.56-3.49-12.69A6.8,6.8,0,0,0,778.67,231.6Z" fill="#fdffe9"/><path d="M734.47,183q-3.39,0-6.77.1a6.72,6.72,0,0,0,3.3.88A6.83,6.83,0,0,0,734.47,183Z" fill="#fdffe9"/><path d="M758.24,211.21a6.81,6.81,0,1,0-6.81-6.81A6.81,6.81,0,0,0,758.24,211.21Z" fill="#fdffe9"/><path d="M731,224.79a6.8,6.8,0,0,0-6.77,6.11,6.06,6.06,0,0,0,0,1.39,6.81,6.81,0,1,0,6.77-7.5Z" fill="#fdffe9"/><path d="M758.24,252a6.81,6.81,0,1,0,6.81,6.81A6.81,6.81,0,0,0,758.24,252Z" fill="#fdffe9"/><path d="M728,279.92c1,0,2,.08,3,.08s2-.05,3-.08a6.61,6.61,0,0,0-6,0Z" fill="#fdffe9"/><path d="M703.76,211.21A6.81,6.81,0,1,0,697,204.4,6.81,6.81,0,0,0,703.76,211.21Z" fill="#fdffe9"/><path d="M683.33,231.6a6.81,6.81,0,0,0-6.81-6.81h-.15c-1.27,4.07-2.45,8.28-3.55,12.5a6.79,6.79,0,0,0,10.51-5.7Z" fill="#fdffe9"/><path d="M703.76,252a6.81,6.81,0,1,0,6.81,6.81A6.81,6.81,0,0,0,703.76,252Z" fill="#fdffe9"/><path d="M785.48,252a6.81,6.81,0,0,0-.09,13.61c2.09-1.2,4.15-2.45,6.16-3.77a6.76,6.76,0,0,0-6.07-9.84Z" fill="#fdffe9"/><path d="M731,211.21a6.81,6.81,0,1,0-6.77-7.51,6.06,6.06,0,0,0,0,1.39A6.8,6.8,0,0,0,731,211.21Z" fill="#fdffe9"/><path d="M758.24,238.41a6.81,6.81,0,1,0-6.81-6.81A6.81,6.81,0,0,0,758.24,238.41Z" fill="#fdffe9"/><path d="M731,252a6.8,6.8,0,0,0-6.77,6.11,6.06,6.06,0,0,0,0,1.39A6.81,6.81,0,1,0,731,252Z" fill="#fdffe9"/><path d="M703.76,224.79a6.81,6.81,0,1,0,6.81,6.81A6.81,6.81,0,0,0,703.76,224.79Z" fill="#fdffe9"/><path d="M683.33,258.8a6.81,6.81,0,0,0-13.58-.7c0,.23,0,.46,0,.7s0,.46,0,.69a6.69,6.69,0,0,0,.67,2.32c2,1.33,4.09,2.59,6.19,3.79A6.8,6.8,0,0,0,683.33,258.8Z" fill="#fdffe9"/><path d="M685.46,101.46c.35.66.67,1.34,1,2C686.13,102.8,685.81,102.12,685.46,101.46Z" fill="#e97069"/><path d="M750.51,131.45c25.39-28.7,59.7-5.8,66.38,9.58,1.08,2.48-6.2,8.9-6.2,8.9s2.15,8.55,1,11.08c-.74,1.57-8.07,3.49-8.07,3.49s-2.4,8.28-4.81,8.79c-13.12,2.75-49.29-5.48-48.08-23.72S725.11,160.16,750.51,131.45Z" fill="#adafb3"/><path d="M760.49,150.11c.74,8.41,9.7,14.5,20,13.61s18.09-8.44,17.36-16.85-9.69-14.5-20-13.61S759.76,141.7,760.49,150.11Z" fill="#fdffe9"/><path d="M712.28,134.83c-20.38-32.46-58-15.45-67-1.37-1.48,2.29,4.66,9.8,4.66,9.8s-3.76,8.19-2.74,10.77c.8,2.05,7.38,4.76,7.38,4.76s1.32,8,3.32,9.45c10.73,8,49.52,2.62,51.31-15.56S732.67,167.29,712.28,134.83Z" fill="#adafb3"/><path d="M699.39,151.61c-2.09,8.18-11.92,12.73-22,10.17S661,150.5,663.05,142.32s11.91-12.73,22-10.16S701.48,143.43,699.39,151.61Z" fill="#fdffe9"/><path d="M676.05,163.54c-6.07,26.65,16,48.24,44.3,53.8s58-7.51,64.07-34.16S769.11,126.5,740.83,121,682.11,136.88,676.05,163.54Z" fill="#b7b9bd"/><path d="M738.09,120.88c-3.89-1.39-7.82,1.32-8,4.32-.88,0-7.17-.53-9.94-3.49s-4.35-5.66-5.59-5.51c1-1.34,3.4-2.23,4.93-1.22a10.49,10.49,0,0,1-4-6c-.43-2-2.17-5.54-4.72-5.06.75-2.2,9.34-3.71,17.25,2.86a7.43,7.43,0,0,1-1.07-5,17.74,17.74,0,0,1,6.7,4C736.65,108.79,739,114.6,738.09,120.88Z" fill="#adafb3" fill-rule="evenodd"/><path d="M741.69,153c.23,4.39,1.86,11.51,7.69,10.84,4.82-.55,8.29-5.79,8.31-10.4a1,1,0,0,0-2.05-.06c0,3.43-2.28,7.18-5.62,8.28-4.84,1.6-6.11-5.32-6.29-8.6-.07-1.31-2.11-1.38-2-.06Z" fill="#171717"/><path d="M719.68,153c-.23,4.39-1.86,11.51-7.69,10.84-4.82-.55-8.28-5.79-8.3-10.4a1,1,0,0,1,2-.06c0,3.43,2.28,7.18,5.62,8.28,4.84,1.6,6.12-5.32,6.29-8.6.07-1.31,2.11-1.38,2-.06Z" fill="#171717"/><path d="M 765.849973 179.759995 A 7.94 6.17 0 0 1 757.909973 185.929995 A 7.94 6.17 0 0 1 749.969973 179.759995 A 7.94 6.17 0 0 1 757.909973 173.589994 A 7.94 6.17 0 0 1 765.849973 179.759995 Z" fill="#ffb0d2"/><path d="M 711.729978 179.759995 A 7.94 6.17 0 0 1 703.789978 185.929995 A 7.94 6.17 0 0 1 695.849978 179.759995 A 7.94 6.17 0 0 1 703.789978 173.589994 A 7.94 6.17 0 0 1 711.729978 179.759995 Z" fill="#ffb0d2"/><path d="M731.36,204.33a14.45,14.45,0,0,1-7.79-2.26c-4.2-2.72-6.26-7.43-5.64-12.93a1,1,0,0,1,2,.23c-.54,4.78,1.15,8.69,4.74,11a12.33,12.33,0,0,0,12.71.35c3.69-2.17,5.51-6.23,5.14-11.41a1,1,0,0,1,.93-1.07,1,1,0,0,1,1.07.92c.42,6-1.75,10.7-6.12,13.28A13.81,13.81,0,0,1,731.36,204.33Z" fill="#171717"/><path d="M722.08,180.75c-.5,6.6,3.1,7.94,8.5,8.35s10.55-.27,11-6.87-3.85-16.61-9.24-17S722.58,174.16,722.08,180.75Z" fill="#171717"/><path d="M731.15,203.26h0a1,1,0,0,1-1-1L730.4,188a1,1,0,0,1,2,0l-.25,14.25A1,1,0,0,1,731.15,203.26Z" fill="#171717"/></g></svg>