<?xml version="1.0" encoding="utf-8"?>
<svg id="master-artboard" viewBox="0 0 900 900" data-name="cute critters" xmlns="http://www.w3.org/2000/svg" width="900px" height="900px"><title>cute-critters-vector-collection</title><g id="octopus" transform="matrix(4.089841807972301, 0, 0, 4.089841807972301, -2539.412612360174, -1391.2173878062856)"><path d="M 841 450 A 110 110 0 0 1 731 560 A 110 110 0 0 1 621 450 A 110 110 0 0 1 731 340 A 110 110 0 0 1 841 450 Z" fill="#ec1b34"/><path d="M778.37,530.57c7.47-6.43-17.22-14.91-47.43-12.84-24.5-1.34-46.5,5.36-48.57,14.71-1.48,8.3,15.08,18.23,53,20.46C774.12,546.53,773.19,538.3,778.37,530.57Z" fill="#3a2f75"/><path d="M731,503.62c4.56,0,8.25,12.62,8.25,28.19S735.56,560,731,560s-8.25-12.62-8.25-28.19S726.44,503.62,731,503.62Z" fill="#f399c0"/><path d="M726.73,504.37c4,2.19,1.13,15-6.38,28.67S703.51,556,699.52,553.75s-1.13-15,6.38-28.67S722.74,502.17,726.73,504.37Z" fill="#f399c0"/><path d="M716.66,501.52c3.29,3.16-2.81,14.81-13.6,26s-22.22,17.74-25.5,14.58,2.81-14.81,13.61-26S713.38,498.35,716.66,501.52Z" fill="#f399c0"/><path d="M736.28,504.37c-4,2.19-1.13,15,6.38,28.67S759.5,556,763.49,553.75s1.14-15-6.37-28.67S740.27,502.17,736.28,504.37Z" fill="#f399c0"/><path d="M746.35,501.52c-3.29,3.16,2.81,14.81,13.61,26s22.21,17.74,25.49,14.58-2.81-14.81-13.61-26S749.63,498.35,746.35,501.52Z" fill="#f399c0"/><path d="M 799.889999 456.890015 A 68.889999 68.889999 0 0 1 731 525.780014 A 68.889999 68.889999 0 0 1 662.110001 456.890015 A 68.889999 68.889999 0 0 1 731 388.000015 A 68.889999 68.889999 0 0 1 799.889999 456.890015 Z" transform="translate(-5.93 9.62) rotate(-0.75)" fill="#f399c0"/><path d="M712.85,409.06A8.87,8.87,0,1,1,704,400.2,8.86,8.86,0,0,1,712.85,409.06Z" fill="#ffb8d4"/><path d="M727,399.43a5.15,5.15,0,1,1-5.15-5.15A5.15,5.15,0,0,1,727,399.43Z" fill="#ffb8d4"/><path d="M696.46,519.33c-3,0-3,4.66,0,4.66S699.47,519.33,696.46,519.33Z" fill="#ffc2da"/><path d="M688.86,526.93c-3,0-3,4.66,0,4.66S691.87,526.93,688.86,526.93Z" fill="#ffc2da"/><path d="M713,525.55c-3,0-3,4.66,0,4.66S716.05,525.55,713,525.55Z" fill="#ffc2da"/><path d="M708.9,533.84c-3,0-3,4.66,0,4.66S711.9,533.84,708.9,533.84Z" fill="#ffc2da"/><path d="M731,529c-3,0-3,4.66,0,4.66S734,529,731,529Z" fill="#ffc2da"/><path d="M731,538.67c-3,0-3,4.67,0,4.67S734,538.67,731,538.67Z" fill="#ffc2da"/><path d="M749.65,525.55c-3,0-3,4.66,0,4.66S752.66,525.55,749.65,525.55Z" fill="#ffc2da"/><path d="M753.8,534.53c-3,0-3,4.66,0,4.66S756.8,534.53,753.8,534.53Z" fill="#ffc2da"/><path d="M760,541.44c-3,0-3,4.66,0,4.66S763,541.44,760,541.44Z" fill="#ffc2da"/><path d="M764.85,518c-3,0-3,4.66,0,4.66S767.85,518,764.85,518Z" fill="#ffc2da"/><path d="M771.06,524.17c-3,0-3,4.66,0,4.66S774.07,524.17,771.06,524.17Z" fill="#ffc2da"/><path d="M777.28,531.07c-3,0-3,4.67,0,4.67S780.29,531.07,777.28,531.07Z" fill="#ffc2da"/><path d="M682.65,533.84c-3,0-3,4.66,0,4.66S685.65,533.84,682.65,533.84Z" fill="#ffc2da"/><path d="M704.75,542.13c-3,0-3,4.66,0,4.66S707.76,542.13,704.75,542.13Z" fill="#ffc2da"/><path d="M731.15,471.37a12,12,0,0,1-6.51-1.9c-4.07-2.61-6.08-7.31-5.5-12.9a1.31,1.31,0,0,1,1.41-1.15,1.29,1.29,0,0,1,1.16,1.41c-.47,4.59,1.1,8.41,4.32,10.47a9.33,9.33,0,0,0,9.71.26c3.29-1.94,4.92-5.76,4.6-10.77a1.29,1.29,0,0,1,1.2-1.38,1.37,1.37,0,0,1,1.38,1.21c.38,5.95-1.76,10.75-5.87,13.17A11.57,11.57,0,0,1,731.15,471.37Z" fill="#171717"/><path d="M753.88,446.91c5.16-8,18.17-4.28,20.64,1.11-7.36-2.07-13.32-5.1-19.85-.47C754.67,447.55,753.45,447.61,753.88,446.91Z" fill="#171717"/><path d="M755.8,435.81c.42-.11.8,0,.85.17l1.92,7.77c0,.19-.26.44-.68.55h0c-.42.1-.8,0-.85-.18l-1.91-7.76c0-.2.25-.45.67-.55Zm6.91-.59c.44,0,.8.14.8.35l.28,8c0,.2-.34.39-.77.4h0c-.44,0-.79-.14-.8-.35l-.28-8c0-.21.34-.39.77-.4Zm7.58.75c.42.13.71.39.65.59l-2.26,7.66c0,.19-.44.26-.85.13h0c-.42-.12-.71-.39-.65-.59l2.25-7.66c.06-.19.45-.25.86-.13Z" fill="#171717" fill-rule="evenodd"/><path d="M708.12,446.91c-5.16-8-18.17-4.28-20.64,1.11,7.36-2.07,13.32-5.1,19.85-.47C707.33,447.55,708.55,447.61,708.12,446.91Z" fill="#171717"/><path d="M706.2,435.81h0c.42.1.72.35.67.55L705,444.12c-.05.2-.43.28-.85.18h0c-.42-.11-.72-.36-.68-.55l1.92-7.77c0-.2.43-.28.85-.17Zm-6.91-.59h0c.43,0,.77.19.77.4l-.28,8c0,.21-.36.36-.8.35h0c-.43,0-.78-.2-.77-.4l.28-8c0-.21.36-.37.8-.35Zm-7.58.75h0c.41-.12.8-.06.86.13l2.25,7.66c.06.2-.23.47-.65.59h0c-.41.13-.8.06-.85-.13l-2.26-7.66c-.06-.2.23-.46.65-.59Z" fill="#171717" fill-rule="evenodd"/><path d="M 774.520024 463.040009 A 9.87 7.68 0 0 1 764.650024 470.720008 A 9.87 7.68 0 0 1 754.780025 463.040009 A 9.87 7.68 0 0 1 764.650024 455.360009 A 9.87 7.68 0 0 1 774.520024 463.040009 Z" fill="#f072ab"/><path d="M 707.219975 463.040009 A 9.87 7.68 0 0 1 697.349976 470.720008 A 9.87 7.68 0 0 1 687.479976 463.040009 A 9.87 7.68 0 0 1 697.349976 455.360009 A 9.87 7.68 0 0 1 707.219975 463.040009 Z" fill="#f072ab"/></g></svg>