<?xml version="1.0" encoding="utf-8"?>
<svg id="master-artboard" viewBox="0 0 900 900" data-name="cute critters" xmlns="http://www.w3.org/2000/svg" width="900px" height="900px"><rect id="ee-background" x="0" y="0" width="900" height="900" style="fill: white; fill-opacity: 0; pointer-events: none;"/><title>cute-critters-vector-set</title><g id="rhino" transform="matrix(4.090625963194759, 0, 0, 4.090625963194759, -241.99159659289506, -2532.606809596462)"><path d="M 279 729 A 110 110 0 0 1 169 839 A 110 110 0 0 1 59 729 A 110 110 0 0 1 169 619 A 110 110 0 0 1 279 729 Z" fill="#fbae17"/><path d="M227.31,787.45A76.59,76.59,0,0,0,220.2,774H211l-11,26.46L189,774H149l-11,26.46L127,774h-9.49a65.8,65.8,0,0,0-7.4,12.14L118,805l-7.17,17.32a108.79,108.79,0,0,0,18.14,9.12l9.07-21.9L149,836l-.44,1.07a109.63,109.63,0,0,0,41,0L189,836l11-26.46,9.07,21.9a109.56,109.56,0,0,0,18.14-9.12L220,805Zm-58.31,44L158,805l11-26.46L180,805Z" fill="#584e8a"/><path d="M110.15,786.14A144.5,144.5,0,0,0,100.46,815a108.77,108.77,0,0,0,10.33,7.32L118,805Z" fill="#ec1b34"/><path d="M 148.9600067138672 774 L 127.04000091552734 774 L 138 800.4600219726562 L 148.9600067138672 774 Z" fill="#ec1b34"/><path d="M138,809.54l-9.07,21.9a109.92,109.92,0,0,0,19.59,5.63L149,836Z" fill="#ec1b34"/><path d="M 158.0399932861328 805 L 169 831.4600219726562 L 179.9600067138672 805 L 169 778.5399780273438 L 158.0399932861328 805 Z" fill="#ec1b34"/><path d="M 210.9600067138672 774 L 189.0399932861328 774 L 200 800.4600219726562 L 210.9600067138672 774 Z" fill="#ec1b34"/><path d="M189,836l.44,1.07a109.92,109.92,0,0,0,19.59-5.63L200,809.54Z" fill="#ec1b34"/><path d="M220,805l7.17,17.32q4.65-2.91,9-6.25a184.28,184.28,0,0,0-8.88-28.62Z" fill="#ec1b34"/><path d="M150.4,691.54c1.21-9.65,2.22-29.68-4.34-35.75-1.09-1-3-2.23-6.8-1.32-3.27.79-5.22,2.32-6.25,4.83-3.52,8.62,4.62,25.77,9.19,33.69Z" fill="#f072ab"/><path d="M140.12,658.13c2.61-.62,3.38-.09,3.83.32,4.44,4.11,4.73,19,3.55,30.41l-3.6.71c-5.24-9.57-10.3-22.81-7.85-28.79.44-1.06,1.3-2,4-2.63l.09,0Zm-1.69-6.58c-22.47,5.31,2.18,45.12,2.18,45.12l12.67-2.29s7.55-48.12-14.72-42.86Z" fill="#584e8a"/><path d="M197.15,693.34c4.67-7.87,13-24.93,9.61-33.57-1-2.52-2.93-4.08-6.08-4.89a8.93,8.93,0,0,0-4.28-.19c-8.79,2.07-8.87,24.53-7.43,37.09Z" fill="#f072ab"/><path d="M197.14,657.81a6,6,0,0,1,2.74.18c2.68.69,3.47,1.88,3.89,3,2.38,6-2.88,19.32-8.24,28.81l-3.58-.68a110.12,110.12,0,0,1-.37-14.55c.58-11.51,3.35-16.2,5.56-16.72ZM186.08,694.5l12.65,2.41s25.11-39.37,2.75-45.14a12,12,0,0,0-5.82-.21C180.44,655.16,186.08,694.5,186.08,694.5Z" fill="#584e8a"/><path d="M169.32,672.31c54.58.34,49.92,79.3,51,87.39,2.22,17.32-.44,21.24-51.28,20.92s-53.69-6.39-50.76-23.85C119.57,748.86,114.74,672,169.32,672.31Z" fill="#584e8a"/><path d="M112.53,766.69c0,20.31,42.19,26.63,56.47,26.63s56.47-4.32,56.47-26.63c0-34.75-42.19-17.37-56.47-17.37S112.53,731.94,112.53,766.69Z" fill="#98a5d4"/><path d="M133.29,754.67a14.47,14.47,0,0,0,3.3,9.18c3.13,3.92,8.13,6.8,14,8.73a63.25,63.25,0,0,0,19.37,2.9c8.65,0,17.22-1.6,23.73-5a22.76,22.76,0,0,0,7.95-6.47,15.43,15.43,0,0,0,3.07-9.36h-1.93a13.49,13.49,0,0,1-2.68,8.19c-2.58,3.5-6.94,6.2-12.26,8A56.82,56.82,0,0,1,170,773.52c-8.72,0-17.53-1.7-24.06-4.95a22.87,22.87,0,0,1-7.81-6,12.53,12.53,0,0,1-2.87-8Z"/><path d="M144.82,751.7a5.62,5.62,0,0,0-1.26-11.09,5.9,5.9,0,0,0-1.33.15,5.62,5.62,0,0,0,1.26,11.09A5.9,5.9,0,0,0,144.82,751.7Z"/><path d="M142.6,742.32a3.79,3.79,0,0,1,1-.1,4,4,0,0,1,.9,7.92,4.32,4.32,0,0,1-.95.1,4,4,0,0,1-2.83-1.19,4,4,0,0,1,1.93-6.73Zm-6.3,3.86a7.23,7.23,0,0,0,7.18,7.27,6.9,6.9,0,0,0,1.71-.19A7.23,7.23,0,0,0,143.57,739a7.41,7.41,0,0,0-1.71.2A7.22,7.22,0,0,0,136.3,746.18Z" fill="#98a5d4"/><path d="M195.77,752.06A5.61,5.61,0,0,0,194.51,741a4.94,4.94,0,0,0-1.33.15,5.62,5.62,0,0,0,1.26,11.08A5.9,5.9,0,0,0,195.77,752.06Z"/><path d="M193.55,742.69a3.74,3.74,0,0,1,.95-.11,4,4,0,0,1,.9,7.92,4.33,4.33,0,0,1-1,.11,4,4,0,0,1-4-4,4,4,0,0,1,3.09-3.88Zm-6.3,3.86a7.23,7.23,0,0,0,7.18,7.27,7.41,7.41,0,0,0,1.71-.19,7.23,7.23,0,0,0-1.62-14.26,8,8,0,0,0-1.71.19A7.23,7.23,0,0,0,187.25,746.55Z" fill="#98a5d4"/><path d="M153.1,742.68c0-14.29,12.48-49.39,15.9-49.39s15.9,35.1,15.9,49.39c0,11.92-8,15.55-15.9,15.55S153.1,754.6,153.1,742.68Z" fill="#f4f0df" fill-rule="evenodd"/><path d="M 209.340006 756.799988 A 5.99 4.66 0 0 1 203.350006 761.459988 A 5.99 4.66 0 0 1 197.360006 756.799988 A 5.99 4.66 0 0 1 203.350006 752.139988 A 5.99 4.66 0 0 1 209.340006 756.799988 Z" fill="#ffa7ca"/><path d="M 140.889994 756.799988 A 5.99 4.66 0 0 1 134.899994 761.459988 A 5.99 4.66 0 0 1 128.909994 756.799988 A 5.99 4.66 0 0 1 134.899994 752.139988 A 5.99 4.66 0 0 1 140.889994 756.799988 Z" fill="#ffa7ca"/><path d="M188,713c5.16-5.74,15.2-1.17,16.52,3.45-5.69-2.57-10.12-5.73-16-2.84C188.52,713.59,187.53,713.48,188,713Z" fill="#171717"/><path d="M190.9,704.33c.35,0,.65.08.67.25l.57,6.45c0,.16-.26.33-.61.36h0c-.35,0-.65-.08-.66-.25l-.58-6.45c0-.16.26-.33.61-.36Zm5.66.39c.35,0,.62.22.6.38l-.78,6.43c0,.16-.32.27-.67.22h0c-.35,0-.62-.21-.6-.38l.78-6.42c0-.17.32-.27.67-.23Zm6,1.55c.32.15.52.4.45.55l-2.78,5.84c-.07.15-.39.16-.71,0h0c-.32-.15-.52-.39-.45-.55l2.78-5.85c.07-.14.39-.15.71,0Z" fill="#171717" fill-rule="evenodd"/><path d="M150,713c-5.16-5.74-15.2-1.17-16.52,3.45,5.69-2.57,10.12-5.73,16-2.84C149.48,713.59,150.47,713.48,150,713Z" fill="#171717"/><path d="M147.1,704.33h0c.35,0,.62.2.61.36l-.58,6.45c0,.17-.31.28-.66.25h0c-.35,0-.63-.2-.61-.36l.57-6.45c0-.17.32-.28.67-.25Zm-5.66.39h0c.35,0,.65.06.67.23l.78,6.42c0,.17-.25.34-.6.38h0c-.35,0-.65-.06-.67-.22l-.78-6.43c0-.16.25-.34.6-.38Zm-6,1.55h0c.32-.16.64-.15.71,0l2.78,5.85c.07.16-.13.4-.45.55h0c-.32.16-.64.15-.71,0L135,706.82c-.07-.15.13-.4.45-.55Z" fill="#171717" fill-rule="evenodd"/></g></svg>